{"asset":{"version":"2.0","generator":"Local multi-scene/shared-node manual QA fixture; not a design reference"},"scene":1,"scenes":[{"name":"QA scene A with extra animation","nodes":[2,3]},{"name":"QA scene B shared rig","nodes":[2]}],"nodes":[{"name":"QA red cube","mesh":0},{"name":"QA camera","camera":0,"translation":[0,1,5]},{"name":"QA shared rig","children":[0,1]},{"name":"QA scene A only object","mesh":0,"translation":[4,0,0]}],"meshes":[{"primitives":[{"attributes":{"POSITION":0,"NORMAL":1},"material":0}]}],"materials":[{"pbrMetallicRoughness":{"baseColorFactor":[0.9,0.08,0.04,1],"metallicFactor":0,"roughnessFactor":0.8}}],"cameras":[{"name":"QA camera","type":"perspective","perspective":{"yfov":0.7853981633974483,"aspectRatio":1.7777777777777777,"znear":0.01,"zfar":100}}],"animations":[{"name":"QA shared motion","samplers":[{"input":2,"output":3,"interpolation":"LINEAR"}],"channels":[{"sampler":0,"target":{"node":2,"path":"translation"}}]},{"name":"QA scene A only animation","samplers":[{"input":2,"output":3,"interpolation":"LINEAR"}],"channels":[{"sampler":0,"target":{"node":3,"path":"translation"}}]}],"buffers":[{"byteLength":912,"uri":"data:application/octet-stream;base64,"}],"bufferViews":[{"buffer":0,"byteOffset":0,"byteLength":432},{"buffer":0,"byteOffset":432,"byteLength":432},{"buffer":0,"byteOffset":864,"byteLength":12},{"buffer":0,"byteOffset":876,"byteLength":36}],"accessors":[{"bufferView":0,"componentType":5126,"count":36,"type":"VEC3","min":[-0.75,-0.75,-0.75],"max":[0.75,0.75,0.75]},{"bufferView":1,"componentType":5126,"count":36,"type":"VEC3"},{"bufferView":2,"componentType":5126,"count":3,"type":"SCALAR","min":[0],"max":[2]},{"bufferView":3,"componentType":5126,"count":3,"type":"VEC3"}]}
